<svg width="93" height="26" viewBox="0 0 93 26" fill="none" xmlns="http://www.w3.org/2000/svg">
<path d="M15.7673 23.5247C13.1007 24.6913 6.66735 25.6247 2.26735 20.0247C0.767347 17.358 -0.632653 10.9247 5.76735 6.52465C6.76735 6.02465 9.46735 5.12465 12.2673 5.52465H12.7673M22.2673 15.2747V23.0247C25.8673 25.8247 30.7673 24.5247 32.7673 23.5247C34.934 22.1913 38.8673 18.1247 37.2673 12.5247C35.6673 6.92466 30.934 5.52465 28.7673 5.52465C28.1007 5.35799 26.2673 5.22465 24.2673 6.02465" stroke="#73D9FF"/>
<path d="M28.7673 5.52465C28.2673 4.19132 25.9673 1.42465 20.7673 1.02465C15.5673 0.624653 12.6007 5.19132 11.7673 7.52465" stroke="#73D9FF"/>
<path d="M42.516 11.812C42.516 10.996 42.7 10.264 43.068 9.616C43.436 8.96 43.936 8.448 44.568 8.08C45.208 7.712 45.916 7.528 46.692 7.528C47.604 7.528 48.4 7.748 49.08 8.188C49.76 8.628 50.256 9.252 50.568 10.06H49.26C49.028 9.556 48.692 9.168 48.252 8.896C47.82 8.624 47.3 8.488 46.692 8.488C46.108 8.488 45.584 8.624 45.12 8.896C44.656 9.168 44.292 9.556 44.028 10.06C43.764 10.556 43.632 11.14 43.632 11.812C43.632 12.476 43.764 13.06 44.028 13.564C44.292 14.06 44.656 14.444 45.12 14.716C45.584 14.988 46.108 15.124 46.692 15.124C47.3 15.124 47.82 14.992 48.252 14.728C48.692 14.456 49.028 14.068 49.26 13.564H50.568C50.256 14.364 49.76 14.984 49.08 15.424C48.4 15.856 47.604 16.072 46.692 16.072C45.916 16.072 45.208 15.892 44.568 15.532C43.936 15.164 43.436 14.656 43.068 14.008C42.7 13.36 42.516 12.628 42.516 11.812ZM53.2855 7.12V16H52.1935V7.12H53.2855ZM58.0147 16.108C57.3987 16.108 56.8387 15.968 56.3347 15.688C55.8387 15.408 55.4467 15.012 55.1587 14.5C54.8787 13.98 54.7387 13.38 54.7387 12.7C54.7387 12.028 54.8827 11.436 55.1707 10.924C55.4667 10.404 55.8667 10.008 56.3707 9.736C56.8747 9.456 57.4387 9.316 58.0627 9.316C58.6867 9.316 59.2507 9.456 59.7547 9.736C60.2587 10.008 60.6547 10.4 60.9427 10.912C61.2387 11.424 61.3867 12.02 61.3867 12.7C61.3867 13.38 61.2347 13.98 60.9307 14.5C60.6347 15.012 60.2307 15.408 59.7187 15.688C59.2067 15.968 58.6387 16.108 58.0147 16.108ZM58.0147 15.148C58.4067 15.148 58.7747 15.056 59.1187 14.872C59.4627 14.688 59.7387 14.412 59.9467 14.044C60.1627 13.676 60.2707 13.228 60.2707 12.7C60.2707 12.172 60.1667 11.724 59.9587 11.356C59.7507 10.988 59.4787 10.716 59.1427 10.54C58.8067 10.356 58.4427 10.264 58.0507 10.264C57.6507 10.264 57.2827 10.356 56.9467 10.54C56.6187 10.716 56.3547 10.988 56.1547 11.356C55.9547 11.724 55.8547 12.172 55.8547 12.7C55.8547 13.236 55.9507 13.688 56.1427 14.056C56.3427 14.424 56.6067 14.7 56.9347 14.884C57.2627 15.06 57.6227 15.148 58.0147 15.148ZM68.6544 9.424V16H67.5624V15.028C67.3544 15.364 67.0624 15.628 66.6864 15.82C66.3184 16.004 65.9104 16.096 65.4624 16.096C64.9504 16.096 64.4904 15.992 64.0824 15.784C63.6744 15.568 63.3504 15.248 63.1104 14.824C62.8784 14.4 62.7624 13.884 62.7624 13.276V9.424H63.8424V13.132C63.8424 13.78 64.0064 14.28 64.3344 14.632C64.6624 14.976 65.1104 15.148 65.6784 15.148C66.2624 15.148 66.7224 14.968 67.0584 14.608C67.3944 14.248 67.5624 13.724 67.5624 13.036V9.424H68.6544ZM73.1022 7.636C74.0142 7.636 74.8022 7.808 75.4662 8.152C76.1382 8.488 76.6502 8.972 77.0022 9.604C77.3622 10.236 77.5422 10.98 77.5422 11.836C77.5422 12.692 77.3622 13.436 77.0022 14.068C76.6502 14.692 76.1382 15.172 75.4662 15.508C74.8022 15.836 74.0142 16 73.1022 16H70.4982V7.636H73.1022ZM73.1022 15.1C74.1822 15.1 75.0062 14.816 75.5742 14.248C76.1422 13.672 76.4262 12.868 76.4262 11.836C76.4262 10.796 76.1382 9.984 75.5622 9.4C74.9942 8.816 74.1742 8.524 73.1022 8.524H71.5902V15.1H73.1022ZM78.5746 12.688C78.5746 12.016 78.7106 11.428 78.9826 10.924C79.2546 10.412 79.6266 10.016 80.0986 9.736C80.5786 9.456 81.1106 9.316 81.6946 9.316C82.2706 9.316 82.7706 9.44 83.1946 9.688C83.6186 9.936 83.9346 10.248 84.1426 10.624V9.424H85.2466V16H84.1426V14.776C83.9266 15.16 83.6026 15.48 83.1706 15.736C82.7466 15.984 82.2506 16.108 81.6826 16.108C81.0986 16.108 80.5706 15.964 80.0986 15.676C79.6266 15.388 79.2546 14.984 78.9826 14.464C78.7106 13.944 78.5746 13.352 78.5746 12.688ZM84.1426 12.7C84.1426 12.204 84.0426 11.772 83.8426 11.404C83.6426 11.036 83.3706 10.756 83.0266 10.564C82.6906 10.364 82.3186 10.264 81.9106 10.264C81.5026 10.264 81.1306 10.36 80.7946 10.552C80.4586 10.744 80.1906 11.024 79.9906 11.392C79.7906 11.76 79.6906 12.192 79.6906 12.688C79.6906 13.192 79.7906 13.632 79.9906 14.008C80.1906 14.376 80.4586 14.66 80.7946 14.86C81.1306 15.052 81.5026 15.148 81.9106 15.148C82.3186 15.148 82.6906 15.052 83.0266 14.86C83.3706 14.66 83.6426 14.376 83.8426 14.008C84.0426 13.632 84.1426 13.196 84.1426 12.7ZM89.54 14.992L91.58 9.424H92.744L90.164 16H88.892L86.312 9.424H87.488L89.54 14.992Z" fill="white"/>
<path d="M47.368 18.18L46.26 21H46.024L45.224 19.148L44.428 21H44.192L43.08 18.18H43.7L44.336 19.892L45.108 18.18H45.344L46.112 19.892L46.748 18.18H47.368ZM48.3168 20.504H49.9248V21H47.7608V18.18H49.8408V18.676H48.3168V19.392H49.5928V19.872H48.3168V20.504ZM52.2378 18.804C52.2378 18.964 52.1618 19.14 52.0298 19.22C52.4778 19.28 52.7898 19.664 52.7898 20.108C52.7898 20.576 52.4938 21 51.9378 21H50.3858V18.18H51.6258C51.9618 18.18 52.2378 18.456 52.2378 18.804ZM50.9418 18.676V19.164H51.4578C51.6498 19.164 51.7258 19.036 51.7258 18.92C51.7258 18.784 51.6138 18.676 51.4138 18.676H50.9418ZM50.9458 20.504H51.6258C52.0218 20.504 52.1858 20.312 52.1858 20.048C52.1858 19.82 52.0178 19.588 51.6298 19.588H50.9458V20.504ZM55.6148 19.328C56.2228 19.464 56.6388 19.656 56.6388 20.172C56.6388 20.716 56.2028 21.036 55.5468 21.036C55.0668 21.036 54.8228 20.992 54.3748 20.768L54.5828 20.324C54.9548 20.504 55.2148 20.54 55.5668 20.54C55.8748 20.54 56.0588 20.428 56.0588 20.22C56.0588 20.028 55.8708 19.944 55.4588 19.848C54.8788 19.716 54.4108 19.552 54.4108 18.996C54.4108 18.5 54.8068 18.148 55.4508 18.148C55.8788 18.148 56.2548 18.256 56.5308 18.376L56.2988 18.832C56.0508 18.728 55.7028 18.644 55.4388 18.644C55.1508 18.644 54.9908 18.772 54.9908 18.948C54.9908 19.148 55.1908 19.232 55.6148 19.328ZM58.4768 18.152C59.3088 18.152 59.9768 18.796 59.9768 19.592C59.9768 20.388 59.3088 21.032 58.4768 21.032C57.6488 21.032 56.9768 20.388 56.9768 19.592C56.9768 18.796 57.6488 18.152 58.4768 18.152ZM58.4768 20.496C58.9808 20.496 59.3928 20.092 59.3928 19.592C59.3928 19.096 58.9808 18.688 58.4768 18.688C57.9728 18.688 57.5648 19.096 57.5648 19.592C57.5648 20.092 57.9728 20.496 58.4768 20.496ZM61.0242 20.52H62.4762V21H60.4522V18.18H61.0242V20.52ZM65.2796 18.18V19.868C65.2796 20.516 64.8476 21.032 64.0276 21.032C63.2116 21.032 62.7836 20.52 62.7836 19.868V18.18H63.3436V19.72C63.3436 20.252 63.5796 20.504 64.0276 20.504C64.4836 20.504 64.7196 20.248 64.7196 19.72V18.18H65.2796ZM68.055 18.18V18.676H67.155V21H66.579V18.676H65.683V18.18H68.055ZM69.0636 18.18V21H68.4876V18.18H69.0636ZM71.0393 18.152C71.8713 18.152 72.5393 18.796 72.5393 19.592C72.5393 20.388 71.8713 21.032 71.0393 21.032C70.2113 21.032 69.5393 20.388 69.5393 19.592C69.5393 18.796 70.2113 18.152 71.0393 18.152ZM71.0393 20.496C71.5433 20.496 71.9553 20.092 71.9553 19.592C71.9553 19.096 71.5433 18.688 71.0393 18.688C70.5353 18.688 70.1273 19.096 70.1273 19.592C70.1273 20.092 70.5353 20.496 71.0393 20.496ZM74.9747 18.18H75.5507V21H75.2707L73.5867 19.224V21H73.0147V18.18H73.2947L74.9747 19.956V18.18ZM77.2438 19.328C77.8518 19.464 78.2678 19.656 78.2678 20.172C78.2678 20.716 77.8318 21.036 77.1758 21.036C76.6958 21.036 76.4518 20.992 76.0038 20.768L76.2118 20.324C76.5838 20.504 76.8438 20.54 77.1958 20.54C77.5038 20.54 77.6878 20.428 77.6878 20.22C77.6878 20.028 77.4998 19.944 77.0878 19.848C76.5078 19.716 76.0398 19.552 76.0398 18.996C76.0398 18.5 76.4358 18.148 77.0798 18.148C77.5078 18.148 77.8838 18.256 78.1598 18.376L77.9278 18.832C77.6798 18.728 77.3318 18.644 77.0678 18.644C76.7798 18.644 76.6198 18.772 76.6198 18.948C76.6198 19.148 76.8198 19.232 77.2438 19.328Z" fill="#73D9FF"/>
</svg>
