<svg xmlns="http://www.w3.org/2000/svg" viewBox="0 0 75.57 37.26"><g id="b38eed09-6198-43e2-8b02-eb4010910ac7" data-name="Layer 2"><g id="bb23ae45-b69a-4ad8-99d4-8d953d3aff13" data-name="Layer 1"><rect x="59.49" y="32.33" width="16.09" height="4.38" rx="2.19" fill="#2a2e37"/><path d="M19.91,6.75,20,0C13,.61.81,11.71,0,31.39c0,1.26,0,5.34,1.28,5.32C3.53,36,7.85,35.2,8.4,32.63c3.32-15.51,8.57-22.25,12-22.89a4.11,4.11,0,0,0-.47-.07C19.82,9.67,20,6.74,19.91,6.75Z" fill="#187eb1"/><path d="M40.36,27C38.17,10.59,27.86,1.15,21.37.1a.53.53,0,0,0-.59.53l.06,6.12c-.1,0,.09,2.92,0,2.92a3.65,3.65,0,0,0-.46.07c3.16.59,7.91,6.46,11.23,19.7.15.58.86.29,1.22.12a16.24,16.24,0,0,1,3.48-1c1.23-.27,2.45-.57,3.67-.89A.53.53,0,0,0,40.36,27Z" fill="#187eb1"/><path d="M62,18.72l7.11.05c0,.07,0,.13,0,.19V18.9C69,12.74,60.39,1.43,39.11.7c-1.33,0-2.31,0-2.84,1.63.33,3.14.87,5.94,5.5,6.86C56.45,12.13,58.33,15.92,58.84,19a1.32,1.32,0,0,0,0-.26C58.89,18.63,62,18.8,62,18.72Z" fill="#187eb1"/><path d="M62,19.21l7.11-.06c0-.06,0-.12,0-.19s0-.12,0-.19L62,18.71c0,.09-3.09-.08-3.09,0a1.28,1.28,0,0,1,0,.27,1.89,1.89,0,0,1,0,.23C58.89,19.29,62,19.12,62,19.21Z" fill="#187eb1"/><path d="M69.09,19.15,62,19.21c0-.09-3.09.08-3.09,0a1.89,1.89,0,0,0,0-.23c-.43,2.64-6.36,6.31-18.42,9.52.16,1.27.27,2.57.32,3.92a13.48,13.48,0,0,1-.54,4.7C58.81,35.13,69,24.76,69.1,19V19C69.1,19,69.09,19.09,69.09,19.15Z" fill="#187eb1"/><path d="M40.74,32.42c-.05-1.35-.16-2.65-.32-3.92,0,.09-3.08.78-3.36.85-1.52.36-5.54.62-5,3.08A5.8,5.8,0,0,0,33.13,35a6.27,6.27,0,0,0,2.3,1.56,7.73,7.73,0,0,0,3.91.71,3.69,3.69,0,0,0,.86-.1A13.48,13.48,0,0,0,40.74,32.42Z" fill="#187eb1"/><path d="M20.84,6.75,20.78,0l-.4,0L20,0l-.07,6.73c.1,0-.09,2.92,0,2.92a4.11,4.11,0,0,1,.47.07,3.65,3.65,0,0,1,.46-.07C20.93,9.67,20.74,6.74,20.84,6.75Z" fill="#187eb1"/><path d="M39.09,29.72l0,.09a1.77,1.77,0,0,0-.3.93,1.89,1.89,0,0,0,0,1,2,2,0,0,0,.45.85,2,2,0,0,0,.7.64l.6.25a2.5,2.5,0,0,0,1.33,0l.6-.25a2.48,2.48,0,0,0,.89-.9l0-.06a1.85,1.85,0,0,0,.29-.93,1.89,1.89,0,0,0,0-1,1.94,1.94,0,0,0-.45-.85,1.88,1.88,0,0,0-.7-.64l-.6-.25a2.5,2.5,0,0,0-1.33,0l-.59.25a2.43,2.43,0,0,0-.9.9l0,.06,4.31,2.52,0-.09a1.79,1.79,0,0,0,.29-.93,1.85,1.85,0,0,0,0-1,2.87,2.87,0,0,0-1.15-1.5l-.6-.25a2.5,2.5,0,0,0-1.33,0l-.59.25a2.59,2.59,0,0,0-.9.9Z" fill="#187eb1"/><path d="M39.09,29.89l0,0a1.71,1.71,0,0,0-.3.93,2,2,0,0,0,0,1A2.87,2.87,0,0,0,40,33.34l.6.25a2.5,2.5,0,0,0,1.33,0l.6-.25a2.48,2.48,0,0,0,.89-.9l0,0a1.71,1.71,0,0,0,.3-.93,1.85,1.85,0,0,0,0-1A2.87,2.87,0,0,0,42.51,29l-.6-.25a2.5,2.5,0,0,0-1.33,0L40,29a2.48,2.48,0,0,0-.89.9Z" fill="#187eb1"/><path d="M38.73,30.61h0L39,30s0,0,0,0l.39-.5,0,0,.51-.39h0l.6-.25h0l.66-.09h0l.67.09h0l.6.25h0l.51.39h0a2,2,0,0,0-.81-.52A2.32,2.32,0,0,0,40,29a1.92,1.92,0,0,0-.8.52l-.39.51a2.43,2.43,0,0,0-.34,1.26l.09.66a2.53,2.53,0,0,0,.64,1.11,5,5,0,0,0,.52.39h0l.6.25h0l.66.09h0l.34-.05.34,0h0l.6-.25h0l.26-.19.25-.2h0a6.41,6.41,0,0,0,.39-.52h0a4.66,4.66,0,0,0,.26-.61,1.89,1.89,0,0,0,0-1,1.77,1.77,0,0,0-.3-.93,2.8,2.8,0,0,0-1.49-1.15l-.66-.08a2.44,2.44,0,0,0-1.27.34l-.5.39a2.52,2.52,0,0,0-.65,1.1Z" fill="#187eb1"/><path d="M40,28.93l-1.8.27-.59.25a1.83,1.83,0,0,0-.7.65,1.15,1.15,0,0,0-.33.55,2,2,0,0,0-.21,1l.09.66.25.6a1.88,1.88,0,0,0,.64.7,2,2,0,0,0,.85.45l.86.27c.27.09.55.17.82.27l-.6-.25.18.1L39,34a.47.47,0,0,1,.1.1l-.39-.5a.18.18,0,0,1,0,.07l-.25-.6,0,.11-.09-.66v.05l.09-.66s0,.05,0,.08l.25-.6a.16.16,0,0,1,0,.07l.39-.51s0,0-.05.06l.5-.39,0,0,.59-.25h0a2.87,2.87,0,0,0-1.5,1.15,1.79,1.79,0,0,0-.29.93,1.85,1.85,0,0,0,0,1l.25.6a2.59,2.59,0,0,0,.9.9l.6.25a2.5,2.5,0,0,0,1.33,0,1.79,1.79,0,0,0,.32-.13L42,35a2.74,2.74,0,0,0,.54-.41,2.71,2.71,0,0,0,.47-.6,2.16,2.16,0,0,0,.32-1,2,2,0,0,0,.05-.38c0,.27-.05-.52-.1-.72a2.62,2.62,0,0,0-.15-.36,3.49,3.49,0,0,0-.15-.34l-.21-.28-.22-.28-.05,0a5.56,5.56,0,0,0-.54-.42L41.92,30a6.11,6.11,0,0,0-.74-.32l-.79-.25-.84-.27V34l1.8-.27a1.78,1.78,0,0,0,.85-.44,1.93,1.93,0,0,0,.65-.71,1.79,1.79,0,0,0,.29-.93,1.85,1.85,0,0,0,0-1l-.25-.6a2.67,2.67,0,0,0-.9-.9l-.6-.25a2.5,2.5,0,0,0-1.33,0Z" fill="#187eb1"/><path d="M40.1,30.62l-1.52.55a1.78,1.78,0,0,0-.85.44,1.9,1.9,0,0,0-.65.7l-.25.6a2,2,0,0,0,0,1,1.31,1.31,0,0,0,.18.63,1.83,1.83,0,0,0,.51.8l.51.4a2.53,2.53,0,0,0,1.26.34,3.85,3.85,0,0,0,.48,0c.37,0,.73-.09,1.09-.16a7.51,7.51,0,0,0,.93-.25,1.83,1.83,0,0,0,.85-.44,2.26,2.26,0,0,0,.94-1.63,2,2,0,0,0,0-1l-.26-.6a2.64,2.64,0,0,0-.89-.9l-.6-.25a2.5,2.5,0,0,0-1.33,0,8.55,8.55,0,0,1-1.21.3l.66-.09a3.22,3.22,0,0,1-.62,0L39.9,36l1.53-.55a2.67,2.67,0,0,0,1.49-1.15,1.8,1.8,0,0,0,.3-.92,1.89,1.89,0,0,0,0-1l-.25-.6a2.64,2.64,0,0,0-.89-.9l-.6-.25a2.5,2.5,0,0,0-1.33,0Z" fill="#187eb1"/><path d="M37.37,32.21l0,0-.39.5-.25.6L36.6,34a2,2,0,0,0,.21,1,1.25,1.25,0,0,0,.33.55,1.27,1.27,0,0,0,.44.45,1.31,1.31,0,0,0,.56.32,1.84,1.84,0,0,0,1,.22,14.12,14.12,0,0,0,2.32-.42,1.89,1.89,0,0,0,.85-.45,2,2,0,0,0,.65-.7l.25-.6a1.85,1.85,0,0,0,0-1,1.3,1.3,0,0,0-.17-.64,1.82,1.82,0,0,0-.52-.8l-.5-.39a2.43,2.43,0,0,0-1.26-.34,5.68,5.68,0,0,0-1.54.1,3.28,3.28,0,0,0-.88.24,1.94,1.94,0,0,0-.85.45,2.26,2.26,0,0,0-.94,1.63,2,2,0,0,0,0,1l.26.6a2.53,2.53,0,0,0,.89.89l.6.25a2.5,2.5,0,0,0,1.33,0h0l-.66.09h0l-.66-.09h0l-.6-.25,0,0-.51-.39a.12.12,0,0,1,0,0L37,35.28l0,0-.25-.6a.09.09,0,0,1,0,.05l-.09-.67v0l.09-.67v0a2,2,0,0,0,0,1,2.26,2.26,0,0,0,.94,1.63,1.94,1.94,0,0,0,.85.45l.67.09a2.53,2.53,0,0,0,1.26-.34l.5-.39a2.55,2.55,0,0,0,.65-1.11,2.43,2.43,0,0,0,.09-.71,2.09,2.09,0,0,0,0-.35c0-.12,0-.24-.05-.35a3.05,3.05,0,0,0-.13-.32,3.09,3.09,0,0,0-.14-.32,1.86,1.86,0,0,0-.21-.28l-.21-.27a2.68,2.68,0,0,0-1.17-.69l-.38-.06a2,2,0,0,0-.35,0l-.69.09,1.33,4.82a3.45,3.45,0,0,1,.89-.24l-.66.09a3.53,3.53,0,0,1,.86,0l-.67-4.91a11.19,11.19,0,0,1-1.42.3l.66-.09-.23,0,1.77,4.26,0,0a2,2,0,0,0,.52-.8,2.32,2.32,0,0,0,0-1.93,2,2,0,0,0-.52-.8l-.51-.39a2.54,2.54,0,0,0-1.26-.35l-.66.09a2.5,2.5,0,0,0-1.11.65Z" fill="#187eb1"/><path d="M66.6,16.61h0a2.83,2.83,0,0,0-1.77.74,2,2,0,0,0-.52.8,2,2,0,0,0-.21,1l.09.67a2.5,2.5,0,0,0,.64,1.1l.51.39a2.43,2.43,0,0,0,1.26.34h0a1.8,1.8,0,0,0,1-.21,2.3,2.3,0,0,0,1.32-1.32,1.8,1.8,0,0,0,.21-1L69,18.45a2.41,2.41,0,0,0-.64-1.1l-.5-.39a2.55,2.55,0,0,0-1.27-.35Z" fill="#187eb1"/><path d="M64.76,17.37l0,0a1.77,1.77,0,0,0-.52.8,1.78,1.78,0,0,0-.21,1,1.8,1.8,0,0,0,.21,1,1.82,1.82,0,0,0,.52.8l.5.39a2.44,2.44,0,0,0,1.27.34l.66-.09a2.41,2.41,0,0,0,1.1-.64l0,0a2.05,2.05,0,0,0,.52-.81,2,2,0,0,0,.21-1,1.93,1.93,0,0,0-.21-1,2.05,2.05,0,0,0-.52-.81L67.79,17a2.43,2.43,0,0,0-1.26-.34l-.66.09a2.48,2.48,0,0,0-1.11.64Z" fill="#187eb1"/><path d="M65.82,16.76q-1.12.24-2.25.39l.66-.09a27.53,27.53,0,0,1-2.87.24,2.59,2.59,0,0,0-1.77.73,2.51,2.51,0,0,0,1.77,4.27,32.28,32.28,0,0,0,5.79-.72,2.5,2.5,0,0,0,1.74-3.08A2.49,2.49,0,0,0,67.74,17a2.67,2.67,0,0,0-1.92-.25Z" fill="#187eb1"/><path d="M61.38,22.1c3.22,0,3.22-5,0-5s-3.22,5,0,5Z" fill="#187eb1"/><path d="M63.52,18.17l0-.05a1.87,1.87,0,0,0-.64-.7A1.94,1.94,0,0,0,62,17a1.89,1.89,0,0,0-1,0,1.85,1.85,0,0,0-.93.29l-.5.4a2.46,2.46,0,0,0-.65,1.1l-.09.66a2.54,2.54,0,0,0,.35,1.26l0,.05a2,2,0,0,0,.64.71,1.88,1.88,0,0,0,.85.44,1.9,1.9,0,0,0,1,.05,2,2,0,0,0,.93-.3l.51-.39a2.5,2.5,0,0,0,.64-1.1l.09-.67a2.53,2.53,0,0,0-.34-1.26Z" fill="#187eb1"/><path d="M61.33,21.71c3.22,0,3.22-5,0-5s-3.22,5,0,5Z" fill="#187eb1"/><path d="M61.36,21.66c3.21,0,3.22-5,0-5s-3.23,5,0,5Z" fill="#187eb1"/><path d="M59.59,17.4l0,0a1.89,1.89,0,0,0-.51.8,2.23,2.23,0,0,0,0,1.93,1.93,1.93,0,0,0,.51.81l.51.39a2.53,2.53,0,0,0,1.26.34L62,21.6A2.5,2.5,0,0,0,63.1,21l0,0a1.82,1.82,0,0,0,.52-.8,2.23,2.23,0,0,0,0-1.93,1.77,1.77,0,0,0-.52-.8l-.5-.4a2.53,2.53,0,0,0-1.26-.34l-.67.09a2.52,2.52,0,0,0-1.1.65Z" fill="#187eb1"/><path d="M63.71,19.86l.06-.3a1.89,1.89,0,0,0,0-1,2.26,2.26,0,0,0-.94-1.63,2,2,0,0,0-.85-.45l-.67-.09a2.54,2.54,0,0,0-1.26.35l-.51.39a2.5,2.5,0,0,0-.64,1.1l-.06.3a1.85,1.85,0,0,0,0,1,1.79,1.79,0,0,0,.29.93,1.9,1.9,0,0,0,.65.7,1.8,1.8,0,0,0,.85.45l.66.09a2.47,2.47,0,0,0,1.27-.34l.5-.39a2.41,2.41,0,0,0,.64-1.1Z" fill="#187eb1"/><path d="M42.77,6.4l0-.08-.39.51,0,0L42,7.18l.08,0-.59.25.15,0-.67.09h.23l-.66-.09a7.93,7.93,0,0,1,2,.54l-.59-.25c.29.13.58.27.86.43a2.55,2.55,0,0,0,1.93.25,1.9,1.9,0,0,0,.85-.45,1.88,1.88,0,0,0,.64-.7,2.49,2.49,0,0,0,.25-1.92,2.58,2.58,0,0,0-1.15-1.5,12.91,12.91,0,0,0-1.46-.68,8.43,8.43,0,0,0-1-.34,8.1,8.1,0,0,0-1-.2,4.93,4.93,0,0,0-.86-.1,4.3,4.3,0,0,0-.72.09l-.11,0,0,0-.6.25-.34.25a1.57,1.57,0,0,0-.48.48,2.93,2.93,0,0,0-.24.34,1.77,1.77,0,0,0-.3.93,1.89,1.89,0,0,0,0,1,2,2,0,0,0,.45.85,2,2,0,0,0,.7.64,2.51,2.51,0,0,0,1.93.25A2.46,2.46,0,0,0,42.77,6.4Z" fill="#187eb1"/><path d="M22.85,3.28V2.73L19.7,5.14h.06l.67.09h0a5.43,5.43,0,0,0,.72-.1h.06c.22-.08.43-.17.64-.27l.06,0,.5-.39h0l0,0a4.75,4.75,0,0,0,.43-.55,1.85,1.85,0,0,0,.29-.93,1.89,1.89,0,0,0,0-1,1.94,1.94,0,0,0-.45-.85A2,2,0,0,0,22,.44l-.6-.25a2.5,2.5,0,0,0-1.33,0L19.5.44a2.43,2.43,0,0,0-.9.9h0L19,.85l-.06.06.5-.4a.18.18,0,0,1-.07.05L20,.31l-.09,0,.66-.09a.14.14,0,0,1-.09,0l.66.09H21a2.5,2.5,0,0,0-1.33,0,1.78,1.78,0,0,0-.85.44,1.93,1.93,0,0,0-.65.71,2.53,2.53,0,0,0-.34,1.26v.55a1.88,1.88,0,0,0,.22,1,1.77,1.77,0,0,0,.52.8,1.77,1.77,0,0,0,.8.52,1.88,1.88,0,0,0,1,.22L21,5.69A2.52,2.52,0,0,0,22.12,5l.39-.5a2.43,2.43,0,0,0,.34-1.26Z" fill="#187eb1"/><path d="M23.29,6.05l-.4-2.87a1.94,1.94,0,0,0-.45-.85,2,2,0,0,0-.7-.64,2,2,0,0,0-.93-.3,1.89,1.89,0,0,0-1,.05,2.49,2.49,0,0,0-1.49,1.15l-.26.59a2.72,2.72,0,0,0,0,1.33l.41,2.87a1.78,1.78,0,0,0,.44.85,1.85,1.85,0,0,0,.71.65,1.79,1.79,0,0,0,.93.29,1.85,1.85,0,0,0,1,0A2.55,2.55,0,0,0,23,8l.25-.6a2.5,2.5,0,0,0,0-1.33Z" fill="#187eb1"/><path d="M22.12,1.8l0,0,.39.51a1.74,1.74,0,0,1-.11-.18l.26.59a.65.65,0,0,1-.06-.21l.09.67a.81.81,0,0,1,0-.22l-.09.66a.83.83,0,0,1,.06-.21l-.26.6.05-.09L17.76,2.62v.56a1.88,1.88,0,0,0,.22,1,1.85,1.85,0,0,0,.52.81,1.83,1.83,0,0,0,.8.51,1.88,1.88,0,0,0,1,.22l.67-.09A2.5,2.5,0,0,0,22,5l.39-.51a2.43,2.43,0,0,0,.34-1.26V2.62L22.67,2a2,2,0,0,0-.45-.85,1.27,1.27,0,0,0-.45-.44,1.89,1.89,0,0,0-.85-.45L20.26.12l-.67.09a2,2,0,0,0-.85.45,1.88,1.88,0,0,0-.64.7l0,.06c-.05.1-.1.22-.14.32l-.14.33a.5.5,0,0,0,0,.13c0,.12,0,.27-.06.38s0,.27-.05.4a.71.71,0,0,0,0,.14,4.31,4.31,0,0,0,.11.78,5,5,0,0,0,.29.71l.06.12a4.71,4.71,0,0,0,.47.61,1.83,1.83,0,0,0,.8.51,2.23,2.23,0,0,0,1.93,0,1.83,1.83,0,0,0,.8-.51l.39-.51a2.43,2.43,0,0,0,.34-1.26l-.08-.67a2.52,2.52,0,0,0-.65-1.1Z" fill="#187eb1"/><path d="M17.84,2.79l.09,1.76a1.9,1.9,0,0,0,.22,1,1.82,1.82,0,0,0,.52.8,1.85,1.85,0,0,0,.8.52,1.88,1.88,0,0,0,1,.21L21.1,7a2.5,2.5,0,0,0,1.1-.64l.39-.51a2.43,2.43,0,0,0,.34-1.26l-.09-1.76a1.9,1.9,0,0,0-.22-1A1.82,1.82,0,0,0,22.1,1,1.85,1.85,0,0,0,21.3.5a1.88,1.88,0,0,0-1-.21l-.67.09a2.5,2.5,0,0,0-1.1.64l-.39.51a2.43,2.43,0,0,0-.34,1.26Z" fill="#187eb1"/><path d="M18,3.08l-.08,2.36a1.88,1.88,0,0,0,.22,1,1.77,1.77,0,0,0,.52.8,1.77,1.77,0,0,0,.8.52,1.88,1.88,0,0,0,1,.22l.67-.09a2.52,2.52,0,0,0,1.1-.65l.39-.5a2.43,2.43,0,0,0,.34-1.26L23,3.08a1.88,1.88,0,0,0-.22-1,1.93,1.93,0,0,0-.51-.81A1.93,1.93,0,0,0,21.43.8a1.88,1.88,0,0,0-1-.22L19.8.67a2.5,2.5,0,0,0-1.1.64l-.39.51A2.43,2.43,0,0,0,18,3.08Z" fill="#187eb1"/><path d="M17.91,3.77l-.08,2.06a1.88,1.88,0,0,0,.22,1,1.77,1.77,0,0,0,.52.8,1.77,1.77,0,0,0,.8.52,1.88,1.88,0,0,0,1,.22L21,8.24a2.52,2.52,0,0,0,1.1-.65l.39-.5a2.43,2.43,0,0,0,.34-1.26l.08-2.06a2,2,0,0,0-.21-1,1.85,1.85,0,0,0-.52-.8,1.85,1.85,0,0,0-.81-.52,1.74,1.74,0,0,0-1-.21l-.66.08A2.55,2.55,0,0,0,18.64,2l-.39.5a2.54,2.54,0,0,0-.34,1.27Z" fill="#187eb1"/><path d="M17.85,3.18a11.43,11.43,0,0,1-.08,2.34l.09-.66c0,.23-.07.46-.11.69a1.9,1.9,0,0,0-.05,1,2,2,0,0,0,.3.93,1.88,1.88,0,0,0,.64.7,1.94,1.94,0,0,0,.85.45,2.55,2.55,0,0,0,1.93-.25,2.51,2.51,0,0,0,1.15-1.5,14.8,14.8,0,0,0,.28-3.7,1.83,1.83,0,0,0-.21-1,2,2,0,0,0-.52-.81,1.92,1.92,0,0,0-.8-.52,2,2,0,0,0-1-.21,2.52,2.52,0,0,0-1.76.73,2.47,2.47,0,0,0-.74,1.77Z" fill="#187eb1"/></g></g></svg>